<?xml version="1.0" encoding="iso-8859-1"?>
<!-- Generator: Adobe Illustrator 19.0.0, SVG Export Plug-In . SVG Version: 6.00 Build 0)  -->
<svg version="1.1" id="Capa_1" xmlns="http://www.w3.org/2000/svg" xmlns:xlink="http://www.w3.org/1999/xlink" x="0px" y="0px"
	 viewBox="0 0 512 512" style="enable-background:new 0 0 512 512;" xml:space="preserve">
<path style="fill:#EDF2FA;" d="M159.981,10.008c-17.672,0-31.999,14.327-31.999,31.999v403.987h246.003v23.998
	c0,17.673,14.328,32,32.001,32l0,0c17.673,0,32.001-14.328,32.001-32v-23.998v-7.655v-166.74V42.006
	c0-14.876,10.152-27.378,23.904-30.964l0.094-1.034H159.981z"/>
<g>
	<path style="fill:#FFB954;" d="M437.985,42.007c0-17.672,14.327-31.999,31.999-31.999s31.999,14.327,31.999,31.999v89.997h-63.998
		V42.007z"/>
	<path style="fill:#FFB954;" d="M373.985,459.993v-21.999H73.989v31.999c0,17.672,14.327,31.999,31.999,31.999h299.998"/>
</g>
<path style="fill:#FF5D5D;" d="M425.278,345.871l68.724,68.724c10.719,10.719,10.634,28.342-0.189,39.164l0,0
	c-10.822,10.822-28.446,10.907-39.164,0.189l-68.724-68.724L425.278,345.871z"/>
<circle style="fill:#C9F3FF;" cx="331.529" cy="291.31" r="105.996"/>
<rect x="30.999" y="128.005" style="fill:#A0E557;" width="43.999" height="53.998"/>
<rect x="110.996" y="64.007" style="fill:#72D8FF;" width="43.999" height="117.996"/>
<rect x="191.074" y="105.006" style="fill:#FF5D5D;" width="45.921" height="76.997"/>
<path d="M159.981,20.008h274.247c-3.954,6.403-6.242,13.938-6.242,21.999v130.982c0,5.522,4.477,10,10,10s10-4.478,10-10v-30.985
	h53.998c5.523,0,10-4.478,10-10V42.007c0-23.158-18.84-41.999-41.999-41.999c-1.826,0-7.094,0-8,0H159.981c-5.523,0-10,4.478-10,10
	S154.458,20.008,159.981,20.008z M491.984,42.007v79.997h-43.999V42.007c0-12.131,9.869-21.999,21.999-21.999
	S491.984,29.876,491.984,42.007z"/>
<path d="M501.072,407.524l-65.32-65.32c7.538-15.373,11.778-32.645,11.778-50.89c0-63.961-52.036-115.996-115.996-115.996
	s-115.996,52.035-115.996,115.996c0,14.624,2.727,28.62,7.688,41.518l-11.705,11.705l-48.143-48.144
	c-1.875-1.875-4.419-2.929-7.071-2.929c-2.652,0-5.196,1.054-7.071,2.929l-11.255,11.255v-91.312c0-5.522-4.477-10-10-10
	s-10,4.478-10,10v111.312l-90.415,90.416c-3.905,3.905-3.905,10.237,0,14.143c1.953,1.952,4.512,2.929,7.071,2.929
	s5.119-0.977,7.071-2.929l76.273-76.273v72.064H73.989c-5.523,0-10,4.478-10,10v31.999c0,23.158,18.84,41.999,41.999,41.999h299.998
	c23.159,0,42-18.841,42-42.001v-8.585c6.996,6.791,16.218,10.525,26.067,10.525c0.062,0,0.125-0.001,0.188-0.001
	c10.072-0.049,19.533-3.991,26.643-11.101C515.632,446.082,515.717,422.169,501.072,407.524z M235.536,291.314
	c0-52.933,43.064-95.997,95.997-95.997s95.997,43.064,95.997,95.997s-43.064,95.997-95.997,95.997
	c-36.348,0-68.041-20.306-84.333-50.169l57.79-57.79v22.687c0,5.522,4.477,10,10,10s10-4.478,10-10v-47.992c0-5.522-4.477-10-10-10
	h-47.993c-5.523,0-10,4.478-10,10c0,5.522,4.477,10,10,10h25.015l-52.974,52.974C236.759,308.835,235.536,300.214,235.536,291.314z
	 M83.988,469.993v-21.999h279.997v12c0,0.327,0.018,0.65,0.049,0.969c-0.031,0.319-0.049,0.642-0.049,0.969v8.061
	c0,8.063,2.288,15.598,6.243,22.001h-264.24C93.857,491.992,83.988,482.123,83.988,469.993z M405.986,491.992
	c-12.132,0-22.001-9.87-22.001-22.001v-8.061c0-0.327-0.018-0.65-0.049-0.969c0.031-0.319,0.049-0.642,0.049-0.969v-21.999
	c0-5.522-4.477-10-10-10H137.981V335.93l18.325-18.325l48.143,48.144c1.875,1.875,4.419,2.929,7.071,2.929s5.196-1.054,7.071-2.929
	l13.982-13.982c20.41,33.288,57.134,55.542,98.96,55.542c18.157,0,35.352-4.198,50.669-11.668l45.784,45.783v28.564
	C427.986,482.122,418.116,491.992,405.986,491.992z M486.742,446.687c-3.358,3.358-7.833,5.221-12.599,5.243
	c-0.029,0.001-0.059,0.001-0.089,0.001c-4.696,0-9.074-1.794-12.335-5.056l-61.876-61.876c9.646-7.052,18.165-15.554,25.237-25.185
	l61.85,61.85C493.777,428.512,493.693,439.738,486.742,446.687z"/>
<path d="M321.533,354.626c0,5.522,4.477,10,10,10c40.425,0,73.313-32.888,73.313-73.312c0-5.522-4.477-10-10-10s-10,4.478-10,10
	c0,29.396-23.916,53.312-53.313,53.312C326.01,344.627,321.533,349.104,321.533,354.626z"/>
<path d="M10,192.002h246.119c5.523,0,10-4.478,10-10s-4.477-10-10-10h-9.127v-66.998c0-5.522-4.477-10-10-10h-45.921
	c-5.523,0-10,4.478-10,10v66.998h-16.076V64.006c0-5.522-4.477-10-10-10h-43.999c-5.523,0-10,4.478-10,10v107.996H84.997v-43.999
	c0-5.522-4.477-10-10-10H30.999c-5.523,0-10,4.478-10,10v43.999H10c-5.523,0-10,4.478-10,10S4.477,192.002,10,192.002z
	 M201.07,115.004h25.922v56.998H201.07V115.004z M120.996,74.006h23.999v97.997h-23.999V74.006z M40.999,138.004h23.999v33.999
	H40.999V138.004z"/>
<path d="M347.45,64.006c0-5.522-4.477-10-10-10h-77.459c-5.523,0-10,4.478-10,10s4.477,10,10,10h77.459
	C342.974,74.006,347.45,69.528,347.45,64.006z"/>
<path d="M393.987,56.935c-1.86-1.86-4.44-2.93-7.07-2.93s-5.21,1.069-7.07,2.93c-1.86,1.861-2.93,4.44-2.93,7.07
	c0,2.63,1.07,5.21,2.93,7.069c1.86,1.86,4.44,2.931,7.07,2.931s5.21-1.07,7.07-2.931c1.86-1.859,2.93-4.439,2.93-7.069
	C396.917,61.376,395.847,58.796,393.987,56.935z"/>
<path d="M282.324,98.005c-5.523,0-10,4.478-10,10s4.477,10,10,10h16.397c5.523,0,10-4.478,10-10s-4.477-10-10-10H282.324z"/>
<path d="M337.451,118.004h49.464c5.523,0,10-4.478,10-10s-4.477-10-10-10h-49.464c-5.523,0-10,4.478-10,10
	S331.928,118.004,337.451,118.004z"/>
<path d="M10.01,439.763c-2.64,0-5.21,1.07-7.07,2.931c-1.87,1.859-2.93,4.439-2.93,7.069s1.06,5.21,2.93,7.07
	c1.86,1.86,4.43,2.93,7.07,2.93c2.63,0,5.2-1.069,7.07-2.93c1.86-1.86,2.93-4.44,2.93-7.07s-1.07-5.21-2.93-7.069
	C15.219,440.834,12.64,439.763,10.01,439.763z"/>
<g>
</g>
<g>
</g>
<g>
</g>
<g>
</g>
<g>
</g>
<g>
</g>
<g>
</g>
<g>
</g>
<g>
</g>
<g>
</g>
<g>
</g>
<g>
</g>
<g>
</g>
<g>
</g>
<g>
</g>
</svg>
