<?xml version="1.0" encoding="iso-8859-1"?>
<!-- Generator: Adobe Illustrator 19.0.0, SVG Export Plug-In . SVG Version: 6.00 Build 0)  -->
<svg version="1.1" id="Capa_1" xmlns="http://www.w3.org/2000/svg" xmlns:xlink="http://www.w3.org/1999/xlink" x="0px" y="0px"
	 viewBox="0 0 512.001 512.001" style="enable-background:new 0 0 512.001 512.001;" xml:space="preserve">
<path style="fill:#C5C7DA;" d="M504.95,50.352L91.896,0.934c-4.328-0.517-8.377,2.67-8.894,6.993L29.783,452.755
	c-0.524,4.387,2.606,8.369,6.993,8.894l413.055,49.417c4.328,0.519,8.377-2.672,8.894-6.993l53.219-444.828
	C512.468,54.859,509.337,50.877,504.95,50.352z"/>
<path style="fill:#E1E2EC;" d="M424,23.123H8c-4.418,0-8,3.582-8,8v448c0,4.418,3.582,8,8,8h416c4.418,0,8-3.582,8-8v-448
	C432,26.704,428.418,23.123,424,23.123z"/>
<path style="fill:#60CDEA;" d="M392,55.123H40c-4.418,0-8,3.582-8,8v312c0,4.418,3.582,8,8,8h352c4.418,0,8-3.582,8-8v-312
	C400,58.704,396.418,55.123,392,55.123z"/>
<path style="fill:#62D16F;" d="M335.611,277.888L400,335.123v40c0,4.418-3.582,8-8,8H200l120.336-105.294
	C324.716,273.997,331.262,274.022,335.611,277.888z"/>
<path style="fill:#40B339;" d="M320.622,277.579L200,383.123h19.69l117.085-104.2l-1.447-1.287
	C331.14,273.914,324.838,273.89,320.622,277.579z"/>
<path style="fill:#62D16F;" d="M32,319.123l70.947-85.137c4.676-5.612,13.323-5.525,17.887,0.179L240,383.123H40
	c-4.418,0-8-3.582-8-8V319.123z"/>
<path style="fill:#40B339;" d="M103.284,233.582L32,319.123v20.94l88.873-105.849l-0.368-0.46
	C116.111,228.262,107.787,228.179,103.284,233.582z"/>
<path style="fill:#F2A83B;" d="M192,151.123c-30.879,0-56,25.122-56,56s25.121,56,56,56s56-25.122,56-56
	S222.879,151.123,192,151.123z"/>
<path style="fill:#F6D45A;" d="M192,175.123c-17.645,0-32,14.355-32,32s14.355,32,32,32s32-14.355,32-32
	S209.645,175.123,192,175.123z"/>
<path style="fill:#E1E2EC;" d="M152,95.123c-2.994,0-5.919,0.567-8.639,1.623c-2.964-14.6-15.899-25.623-31.361-25.623
	c-14.891,0-27.439,10.224-30.993,24.021c-0.335-0.014-0.671-0.021-1.007-0.021c-13.233,0-24,10.767-24,24s10.767,24,24,24h72
	c13.233,0,24-10.767,24-24S165.233,95.123,152,95.123z"/>
<path style="fill:#C5C7DA;" d="M160,135.123H88c-13.233,0-24-10.767-24-24c0-4.571,1.286-8.847,3.513-12.487
	C60.614,102.856,56,110.461,56,119.123c0,13.233,10.767,24,24,24h72c8.662,0,16.267-4.614,20.487-11.513
	C168.847,133.837,164.571,135.123,160,135.123z"/>
<path style="fill:#E1E2EC;" d="M360,175.123c-2.994,0-5.919,0.567-8.639,1.623c-2.964-14.6-15.899-25.623-31.361-25.623
	c-14.891,0-27.439,10.224-30.993,24.021c-0.335-0.014-0.671-0.021-1.007-0.021c-13.233,0-24,10.767-24,24s10.767,24,24,24h72
	c13.233,0,24-10.767,24-24S373.233,175.123,360,175.123z"/>
<path style="fill:#C5C7DA;" d="M368,215.123h-72c-13.233,0-24-10.767-24-24c0-4.571,1.286-8.847,3.513-12.487
	c-6.899,4.22-11.513,11.825-11.513,20.487c0,13.233,10.767,24,24,24h72c8.662,0,16.267-4.614,20.487-11.513
	C376.847,213.837,372.571,215.123,368,215.123z"/>
<g>
</g>
<g>
</g>
<g>
</g>
<g>
</g>
<g>
</g>
<g>
</g>
<g>
</g>
<g>
</g>
<g>
</g>
<g>
</g>
<g>
</g>
<g>
</g>
<g>
</g>
<g>
</g>
<g>
</g>
</svg>
