<?xml version="1.0" encoding="iso-8859-1"?>
<!-- Generator: Adobe Illustrator 19.0.0, SVG Export Plug-In . SVG Version: 6.00 Build 0)  -->
<svg version="1.1" id="Capa_1" xmlns="http://www.w3.org/2000/svg" xmlns:xlink="http://www.w3.org/1999/xlink" x="0px" y="0px"
	 viewBox="0 0 512 512" style="enable-background:new 0 0 512 512;" xml:space="preserve">
<polygon style="fill:#FFB751;" points="491.396,20.604 326.567,20.604 388.378,326.567 491.396,326.567 "/>
<rect x="20.604" y="20.604" style="fill:#FFD764;" width="367.775" height="305.964"/>
<g>
	<path style="fill:#E0230D;" d="M419.284,0v357.473c23.179,0,23.179-15.453,46.358-15.453s23.179,15.453,46.358,15.453V0H419.284z"
		/>
	<path style="fill:#E0230D;" d="M2.575,0v357.473c23.179,0,23.179-15.453,46.358-15.453s23.179,15.453,46.358,15.453V30.905L2.575,0
		z"/>
</g>
<path style="fill:#901C0F;" d="M512,0l-61.811,10.302l30.905,334.872c9.673,4.518,14.454,12.299,30.905,12.299V0z"/>
<g>
	<path style="fill:#E0230D;" d="M419.284,30.905v326.567c23.179,0,23.179-15.453,46.358-15.453c6.728,0,11.497,1.305,15.453,3.153
		V10.302L419.284,30.905z"/>
	<path style="fill:#E0230D;" d="M481.095,0l-61.811,92.716C470.49,92.716,512,51.206,512,0H481.095z"/>
</g>
<g>
	<path style="fill:#FF5440;" d="M481.095,0H326.567c0,51.206,41.51,92.716,92.716,92.716C453.421,92.716,481.095,51.206,481.095,0z"
		/>
	<path style="fill:#FF5440;" d="M0,0c0,51.206,41.51,92.716,92.716,92.716S185.433,51.206,185.433,0H0z"/>
</g>
<path style="fill:#E0230D;" d="M348.716,0c0,51.206-41.51,92.716-92.716,92.716S163.284,51.206,163.284,0H348.716z"/>
<path style="fill:#3B4145;" d="M192.901,388.378h-30.905l46.358,81.004h30.905c0,0,0-21.125,0-42.372
	C239.26,405.763,218.398,388.378,192.901,388.378z"/>
<path style="fill:#525A61;" d="M161.996,388.378h-24.724c-25.497,0-46.358,17.384-46.358,38.632v38.632L148.346,512h33.481
	l26.527-42.618V427.01C208.354,405.763,187.493,388.378,161.996,388.378z"/>
<path style="fill:#3B4145;" d="M374.728,388.378h-30.905l46.358,81.004h30.905c0,0,0-21.125,0-42.372
	C421.087,405.763,400.225,388.378,374.728,388.378z"/>
<g>
	<path style="fill:#525A61;" d="M343.823,388.378h-24.724c-25.497,0-46.358,17.384-46.358,38.632v38.632L330.173,512h33.481
		l26.527-42.618V427.01C390.181,405.763,369.32,388.378,343.823,388.378z"/>
	<path style="fill:#525A61;" d="M465.642,434.736h-30.905L481.095,512H512c0,0,0-17.384,0-38.632
		C512,452.121,491.139,434.736,465.642,434.736z"/>
</g>
<path style="fill:#6D7881;" d="M434.736,434.736h-24.724c-25.497,0-46.358,17.384-46.358,38.632c0,21.247,0,38.632,0,38.632h117.441
	c0,0,0-17.384,0-38.632C481.095,452.121,460.233,434.736,434.736,434.736z"/>
<path style="fill:#525A61;" d="M101.988,434.736H71.082L117.441,512h30.905c0,0,0-17.384,0-38.632
	C148.346,452.121,127.485,434.736,101.988,434.736z"/>
<path style="fill:#6D7881;" d="M71.082,434.736H46.358C20.861,434.736,0,452.121,0,473.368C0,494.616,0,512,0,512h117.441
	c0,0,0-17.384,0-38.632C117.441,452.121,96.579,434.736,71.082,434.736z"/>
<path style="fill:#525A61;" d="M283.815,434.736h-30.905L299.268,512h30.905c0,0,0-17.384,0-38.632
	C330.173,452.121,309.312,434.736,283.815,434.736z"/>
<path style="fill:#6D7881;" d="M252.909,434.736h-24.724c-25.497,0-46.358,17.384-46.358,38.632c0,21.247,0,38.632,0,38.632h117.441
	c0,0,0-17.384,0-38.632C299.268,452.121,278.406,434.736,252.909,434.736z"/>
<g>
</g>
<g>
</g>
<g>
</g>
<g>
</g>
<g>
</g>
<g>
</g>
<g>
</g>
<g>
</g>
<g>
</g>
<g>
</g>
<g>
</g>
<g>
</g>
<g>
</g>
<g>
</g>
<g>
</g>
</svg>
