<?xml version="1.0" encoding="iso-8859-1"?>
<!-- Generator: Adobe Illustrator 19.0.0, SVG Export Plug-In . SVG Version: 6.00 Build 0)  -->
<svg version="1.1" id="Capa_1" xmlns="http://www.w3.org/2000/svg" xmlns:xlink="http://www.w3.org/1999/xlink" x="0px" y="0px"
	 viewBox="0 0 496.485 496.485" style="enable-background:new 0 0 496.485 496.485;" xml:space="preserve">
<circle style="fill:#FDBF5E;" cx="248.242" cy="248.242" r="248.242"/>
<g>
	<rect x="198.594" y="26.376" style="fill:#193651;" width="15.515" height="15.515"/>
	<rect x="240.485" y="26.376" style="fill:#193651;" width="15.515" height="15.515"/>
	<rect x="282.376" y="26.376" style="fill:#193651;" width="15.515" height="15.515"/>
	<rect x="198.594" y="449.939" style="fill:#193651;" width="15.515" height="15.515"/>
	<rect x="240.485" y="449.939" style="fill:#193651;" width="15.515" height="15.515"/>
	<rect x="282.376" y="449.939" style="fill:#193651;" width="15.515" height="15.515"/>
</g>
<path style="fill:#E1E6E9;" d="M465.455,76.024H31.03c-13.188,0-23.273,10.085-23.273,23.273v297.891
	c0,13.188,10.085,23.273,23.273,23.273h434.424c13.188,0,23.273-10.085,23.273-23.273V99.297
	C488.727,86.109,478.642,76.024,465.455,76.024z"/>
<path style="fill:#193651;" d="M465.455,428.218H31.03c-17.067,0-31.03-13.964-31.03-31.03V99.297
	c0-17.067,13.964-31.03,31.03-31.03h434.424c17.067,0,31.03,13.964,31.03,31.03v297.891
	C496.485,414.255,482.521,428.218,465.455,428.218z M31.03,83.782c-8.533,0-15.515,6.982-15.515,15.515v297.891
	c0,8.533,6.982,15.515,15.515,15.515h434.424c8.533,0,15.515-6.982,15.515-15.515V99.297c0-8.533-6.982-15.515-15.515-15.515H31.03z
	"/>
<rect x="38.788" y="152.048" style="fill:#FFFFFF;" width="384" height="237.382"/>
<rect x="69.818" y="183.079" style="fill:#2EA2DB;" width="173.77" height="113.261"/>
<rect x="38.788" y="107.055" style="fill:#F16051;" width="384" height="44.994"/>
<g>
	<rect x="69.818" y="321.939" style="fill:#193651;" width="173.77" height="13.964"/>
	<rect x="310.303" y="183.079" style="fill:#193651;" width="73.697" height="13.964"/>
</g>
<rect x="310.303" y="212.558" style="fill:#CFD0D1;" width="37.236" height="13.964"/>
<rect x="310.303" y="250.57" style="fill:#193651;" width="73.697" height="13.964"/>
<rect x="310.303" y="280.048" style="fill:#CFD0D1;" width="37.236" height="13.964"/>
<g>
	<rect x="69.818" y="355.297" style="fill:#193651;" width="314.182" height="13.964"/>
	<path style="fill:#193651;" d="M453.042,210.23c-4.655,0-8.533,3.879-8.533,8.533v58.958c0,4.655,3.879,8.533,8.533,8.533
		s8.533-3.879,8.533-8.533v-58.958C461.576,214.109,457.697,210.23,453.042,210.23z"/>
</g>
<polygon style="fill:#FFFFFF;" points="134.206,212.558 134.206,266.085 179.976,239.709 "/>
<g>
</g>
<g>
</g>
<g>
</g>
<g>
</g>
<g>
</g>
<g>
</g>
<g>
</g>
<g>
</g>
<g>
</g>
<g>
</g>
<g>
</g>
<g>
</g>
<g>
</g>
<g>
</g>
<g>
</g>
</svg>
