<svg width="492.004" height="492.004" xmlns="http://www.w3.org/2000/svg">

 <g>
  <title>background</title>
  <rect fill="none" id="canvas_background" height="402" width="582" y="-1" x="-1"/>
 </g>
 <g>
  <title>Layer 1</title>
  <g transform="rotate(-180 246.0020446777344,246.0019836425781) " stroke="null" id="svg_1">
   <g stroke="null" id="svg_2">
    <path stroke="null" id="svg_3" fill="#4a79c9" d="m484.14,226.886l-177.68,-177.684c-5.072,-5.072 -11.832,-7.856 -19.04,-7.856c-7.216,0 -13.972,2.788 -19.044,7.856l-16.132,16.136c-5.068,5.064 -7.86,11.828 -7.86,19.04c0,7.208 2.792,14.2 7.86,19.264l103.656,103.884l-329.32,0c-14.848,0 -26.58,11.624 -26.58,26.476l0,22.812c0,14.852 11.732,27.648 26.58,27.648l330.496,0l-104.828,104.464c-5.068,5.072 -7.86,11.652 -7.86,18.864c0,7.204 2.792,13.88 7.86,18.948l16.132,16.084c5.072,5.072 11.828,7.836 19.044,7.836c7.208,0 13.968,-2.8 19.04,-7.872l177.68,-177.68c5.084,-5.088 7.88,-11.88 7.86,-19.1c0.016,-7.244 -2.776,-14.04 -7.864,-19.12z"/>
   </g>
  </g>
  <g id="svg_4"/>
  <g id="svg_5"/>
  <g id="svg_6"/>
  <g id="svg_7"/>
  <g id="svg_8"/>
  <g id="svg_9"/>
  <g id="svg_10"/>
  <g id="svg_11"/>
  <g id="svg_12"/>
  <g id="svg_13"/>
  <g id="svg_14"/>
  <g id="svg_15"/>
  <g id="svg_16"/>
  <g id="svg_17"/>
  <g id="svg_18"/>
 </g>
</svg>